<svg xmlns="http://www.w3.org/2000/svg" viewBox="0 0 72.00 72.00" data-guides="{&quot;vertical&quot;:[],&quot;horizontal&quot;:[]}"><defs/><path fill="#fff" stroke="none" fill-opacity="1" stroke-width="1" stroke-opacity="1" alignment-baseline="" baseline-shift="" id="tSvg716e3fa281" title="Path 1" d="M61.2167 21.6411C53.4481 19.4403 45.6796 17.2394 37.911 15.0386C37.7299 14.9875 37.5381 14.9881 37.3573 15.0405C29.8257 17.2495 22.2942 19.4585 14.7626 21.6675C14.7152 21.6877 14.6696 21.7118 14.6261 21.7394C10.6164 22.785 9.2424 27.7792 12.1527 30.7288C12.3509 30.9297 12.5646 31.1146 12.7918 31.282C9.8437 33.4457 9.8774 37.8603 12.8581 39.9788C9.4869 42.3813 9.9807 47.5323 13.747 49.2506C13.9411 49.3392 14.1404 49.4161 14.3437 49.481C22.0152 51.7186 29.6868 53.9562 37.3583 56.1938C37.5393 56.2466 37.7316 56.2473 37.913 56.1958C45.6816 53.9787 53.4501 51.7615 61.2187 49.5444C61.6481 49.4216 61.9441 49.0291 61.9442 48.5825C61.9442 39.9227 61.9442 31.2628 61.9442 22.603C61.9441 22.1558 61.647 21.763 61.2167 21.6411Z"/><path fill="#92d3f5" stroke="none" fill-opacity="1" stroke-width="1" stroke-opacity="1" alignment-baseline="" baseline-shift="" id="tSvgc4aae16ec3" title="Path 2" d="M37.638 15.976C45.4067 18.177 53.1753 20.378 60.944 22.579C53.1753 24.7963 45.4067 27.0137 37.638 29.231C30.1067 27.0217 22.5753 24.8123 15.044 22.603C22.5753 20.394 30.1067 18.185 37.638 15.976Z"/><path fill="#61b2e4" stroke="none" fill-opacity="1" stroke-width="1" stroke-opacity="1" alignment-baseline="" baseline-shift="" id="tSvg13279ccd2cd" title="Path 3" d="M15.0823 24.7275C22.4134 26.8763 29.7445 29.0252 37.0756 31.174C37.4382 31.2803 37.8235 31.2816 38.1869 31.1779C45.9518 28.9228 53.7167 26.6677 61.4816 24.4126C61.7402 24.3375 61.9195 24.1025 61.9236 23.8332C61.9299 23.4163 61.9362 22.9993 61.9425 22.5824C53.841 24.8065 45.7396 27.0306 37.6381 29.2547C30.1187 27.0506 22.5994 24.8466 15.08 22.6425C11.768 23.3521 10.4662 27.3808 12.7367 29.8943C13.2486 30.461 13.8992 30.8848 14.6246 31.1238C22.2959 33.3615 29.9673 35.5991 37.6386 37.8368C45.7091 35.5335 53.7796 33.2301 61.8501 30.9268C61.8634 30.5127 61.8768 30.0986 61.8901 29.6845C61.9037 29.2609 61.5009 28.9467 61.0933 29.063C53.2769 31.2937 45.4606 33.5245 37.6442 35.7552C30.17 33.5752 22.6958 31.3952 15.2216 29.2152C13.4742 28.6154 13.0313 26.3489 14.4245 25.1354C14.6203 24.9649 14.8424 24.8273 15.0823 24.7279"/><path fill="#d22f27" stroke="none" fill-opacity="1" stroke-width="1" stroke-opacity="1" alignment-baseline="" baseline-shift="" id="tSvg1701b0edf74" title="Path 4" d="M15.0823 33.4092C22.4134 35.558 29.7445 37.7069 37.0756 39.8557C37.4382 39.9621 37.8235 39.9634 38.1869 39.8597C45.9518 37.6046 53.7167 35.3495 61.4816 33.0944C61.7402 33.0193 61.9195 32.7842 61.9236 32.515C61.9299 32.0981 61.9362 31.6811 61.9425 31.2642C53.841 33.4883 45.7396 35.7124 37.6381 37.9365C30.1187 35.7324 22.5994 33.5284 15.08 31.3243C11.768 32.0339 10.4662 36.0626 12.7367 38.5761C13.2486 39.1428 13.8992 39.5666 14.6246 39.8056C22.2959 42.0433 29.9673 44.2809 37.6386 46.5186C45.7091 44.2153 53.7796 41.9119 61.8501 39.6086C61.8634 39.1945 61.8768 38.7803 61.8901 38.3662C61.9037 37.9426 61.5008 37.6284 61.0933 37.7448C53.2769 39.9755 45.4606 42.2063 37.6442 44.437C30.17 42.257 22.6958 40.077 15.2216 37.897C13.4742 37.2972 13.0313 35.0307 14.4245 33.8172C14.6203 33.6467 14.8424 33.5091 15.0823 33.4097"/><path fill="#5c9e31" stroke="none" fill-opacity="1" stroke-width="1" stroke-opacity="1" alignment-baseline="" baseline-shift="" id="tSvg1850039219e" title="Path 5" d="M15.0823 42.1549C22.4134 44.3037 29.7445 46.4526 37.0756 48.6014C37.4382 48.7077 37.8235 48.709 38.1869 48.6053C45.9518 46.3502 53.7167 44.0951 61.4816 41.84C61.7402 41.7649 61.9195 41.5299 61.9236 41.2606C61.9299 40.8437 61.9362 40.4268 61.9425 40.0099C53.841 42.234 45.7396 44.458 37.6381 46.6821C30.1187 44.4781 22.5994 42.274 15.08 40.07C11.768 40.7796 10.4662 44.8083 12.7367 47.3218C13.2486 47.8885 13.8992 48.3123 14.6246 48.5513C22.2959 50.789 29.9673 53.0266 37.6386 55.2643C45.7091 52.961 53.7796 50.6576 61.8501 48.3543C61.8634 47.9402 61.8768 47.526 61.8901 47.1119C61.9037 46.6883 61.5008 46.3741 61.0933 46.4905C53.2769 48.7212 45.4606 50.952 37.6442 53.1827C30.17 51.0027 22.6958 48.8227 15.2216 46.6427C13.4742 46.0429 13.0313 43.7764 14.4245 42.5629C14.6203 42.3924 14.8424 42.2548 15.0823 42.1554"/><path fill="#61b2e4" stroke="none" fill-opacity="1" stroke-width="1" stroke-opacity="1" alignment-baseline="" baseline-shift="" id="tSvg8b1291ddb2" title="Path 6" d="M44.32 17.794C42.4113 17.2533 40.5027 16.7127 38.594 16.172C31.0627 18.381 23.5313 20.59 16 22.799C17.9367 23.3673 19.8733 23.9357 21.81 24.504C29.3133 22.2673 36.8167 20.0307 44.32 17.794Z"/><path fill="none" stroke="#6f6f6f" fill-opacity="1" stroke-width="2" stroke-opacity="1" alignment-baseline="" baseline-shift="" stroke-linecap="round" stroke-linejoin="round" id="tSvg90cbbf74e8" title="Path 7" d="M37.638 16C45.4067 18.201 53.1753 20.402 60.944 22.603C53.1753 24.8203 45.4067 27.0377 37.638 29.255C30.1067 27.0457 22.5753 24.8363 15.044 22.627C22.5753 20.418 30.1067 18.209 37.638 16Z"/><path fill="none" stroke="#6f6f6f" fill-opacity="1" stroke-width="2" stroke-opacity="1" alignment-baseline="" baseline-shift="" stroke-linecap="round" stroke-linejoin="round" id="tSvg12ede1debb7" title="Path 8" d="M15.08 22.6425C11.768 23.3521 10.4662 27.3808 12.7367 29.8943C13.2486 30.461 13.8992 30.8848 14.6246 31.1238C22.296 33.3615 29.9673 35.5991 37.6387 37.8368C45.4073 35.6196 53.1758 33.4024 60.9444 31.1852"/><path fill="none" stroke="#6f6f6f" fill-opacity="1" stroke-width="2" stroke-opacity="1" alignment-baseline="" baseline-shift="" stroke-linecap="round" stroke-linejoin="round" id="tSvg10e7d187c8b" title="Path 9" d="M15.08 31.2942C11.768 32.0038 10.4662 36.0325 12.7367 38.546C13.2486 39.1127 13.8992 39.5365 14.6246 39.7755C22.296 42.0132 29.9673 44.2508 37.6387 46.4885C45.4073 44.2713 53.1758 42.0541 60.9444 39.8369"/><path fill="none" stroke="#6f6f6f" fill-opacity="1" stroke-width="2" stroke-opacity="1" alignment-baseline="" baseline-shift="" stroke-linecap="round" stroke-linejoin="round" id="tSvg455893a6ce" title="Path 10" d="M15.08 40.04C11.768 40.7496 10.4662 44.7783 12.7367 47.2918C13.2486 47.8585 13.8992 48.2823 14.6246 48.5213C22.296 50.759 29.9673 52.9966 37.6387 55.2343C45.4073 53.0171 53.1758 50.7999 60.9444 48.5827"/></svg>