<svg xmlns="http://www.w3.org/2000/svg" viewBox="0 0 72.00 72.00" data-guides="{&quot;vertical&quot;:[],&quot;horizontal&quot;:[]}"><defs/><path fill="#d0cfce" stroke="none" fill-opacity="1" stroke-width="1" stroke-opacity="1" alignment-baseline="" baseline-shift="" id="tSvg100613e4d35" title="Path 11" d="M44.1833 60.9583C44.1833 65.9166 52.0234 68 52.0234 68C41.4832 68 30.9431 68 20.4029 68C20.4029 68 28.243 65.9167 28.243 60.9583C28.243 59.3138 28.243 57.6692 28.243 56.0247C33.5025 56.0247 38.762 56.0247 44.0215 56.0247C44.0754 57.6692 44.1294 59.3138 44.1833 60.9583Z"/><path fill="#9b9b9a" stroke="none" fill-opacity="1" stroke-width="1" stroke-opacity="1" alignment-baseline="" baseline-shift="" id="tSvg1158f7343ed" title="Path 12" d="M63.1941 56C45.2068 56 27.2196 56 9.2323 56C6.4297 56 4.1577 53.728 4.1577 50.9254C4.1577 39.2946 4.1577 27.6638 4.1577 16.033C4.1577 13.2304 6.4297 10.9584 9.2323 10.9584C27.2196 10.9584 45.2068 10.9584 63.1941 10.9584C65.9967 10.9584 68.2687 13.2304 68.2687 16.033C68.2687 27.6638 68.2687 39.2946 68.2687 50.9254C68.2687 53.728 65.9967 56 63.1941 56Z"/><path fill="#fff" stroke="none" fill-opacity="1" stroke-width="1" stroke-opacity="1" alignment-baseline="" baseline-shift="" id="tSvg12b7b6cfd1a" title="Path 13" d="M67.5469 46.7214C46.4357 39.2145 25.3244 31.7075 4.2132 24.2006C4.2132 21.0481 4.2132 17.8955 4.2132 14.743C4.2132 12.8975 6.0402 11.608 7.7791 12.2263C27.7017 19.3106 47.6243 26.3948 67.5469 33.4791C67.5469 37.8932 67.5469 42.3073 67.5469 46.7214Z"/><path fill="#d0cfce" stroke="none" fill-opacity="1" stroke-width="1" stroke-opacity="1" alignment-baseline="" baseline-shift="" id="tSvg94e81611df" title="Path 14" d="M68.2687 47.5629C68.2687 47.5629 68.4809 51.7071 66.7188 53.6434C66.3598 54.0379 64.074 55.4983 63.1941 55.4969C45.2068 55.6636 27.2196 55.8302 9.2323 55.9969C6.4297 55.9969 5.0683 54.1449 5.0683 53.5535C4.7648 51.5566 4.4612 49.5598 4.1577 47.5629"/><path fill="none" stroke="#000" fill-opacity="1" stroke-width="2" stroke-opacity="1" alignment-baseline="" baseline-shift="" stroke-linecap="round" stroke-linejoin="round" id="tSvg13de091af69" title="Path 15" d="M63.1941 56C45.2068 56 27.2196 56 9.2323 56C6.4297 56 4.1577 53.728 4.1577 50.9254C4.1577 39.2946 4.1577 27.6638 4.1577 16.033C4.1577 13.2304 6.4297 10.9584 9.2323 10.9584C27.2196 10.9584 45.2068 10.9584 63.1941 10.9584C65.9967 10.9584 68.2687 13.2304 68.2687 16.033C68.2687 27.6638 68.2687 39.2946 68.2687 50.9254C68.2687 53.728 65.9967 56 63.1941 56Z"/><path fill="none" stroke="#000" fill-opacity="1" stroke-width="0.9187" stroke-opacity="1" alignment-baseline="" baseline-shift="" stroke-linecap="round" stroke-linejoin="round" id="tSvg1085e8189a9" title="Path 16" d="M63.1941 55.2469C45.2068 55.4969 27.2196 55.7469 9.2323 55.9969C6.4297 55.9969 5.0683 54.1449 5.0683 53.5535C4.7648 51.5566 4.4612 49.5598 4.1577 47.5629"/><path fill="none" stroke="#ffffff" fill-opacity="1" stroke-width="2" stroke-opacity="1" alignment-baseline="" baseline-shift="" stroke-linecap="round" stroke-linejoin="round" id="tSvg2cb5760426" title="Path 17" d="M63.1941 55.5C45.2068 55.6667 27.2196 55.8333 9.2323 56C6.4297 56 4.1577 53.728 4.1577 50.9254C4.1577 39.2946 4.1577 27.6638 4.1577 16.033C4.1577 13.2304 6.4297 10.9584 9.2323 10.9584C27.2196 10.9584 45.2068 10.9584 63.1941 10.9584C65.9967 10.9584 68.2687 13.2304 68.2687 16.033C68.102 27.6638 67.9354 39.2946 67.7687 50.9254C67.7687 53.728 65.9967 55.5 63.1941 55.5Z"/><line alignment-baseline="" baseline-shift="" stroke-linecap="round" stroke-linejoin="round" stroke-width="2" stroke="#ffffff" x1="7.213200000000143" x2="65.21320000000014" y1="48.49240000000009" y2="48.49240000000009" fill="none" id="tSvg89d8ecd456" title="Line 1" fill-opacity="1" stroke-opacity="1" style="transform-origin: 36.2132px 48.4924px 0px;"/><path fill="none" stroke="#ffffff" fill-opacity="1" stroke-width="2" stroke-opacity="1" alignment-baseline="" baseline-shift="" stroke-linecap="round" stroke-linejoin="round" id="tSvg379aa5d59d" title="Path 18" d="M43.1833 60.9583C43.1833 65.9166 52.0234 68 52.0234 68C41.4832 68 30.9431 68 20.4029 68C20.4029 68 29.243 65.9167 29.243 60.9583"/></svg>